HIERARCHY
ROOT Hips
{
	OFFSET 0.000000 0.000000 0.000000
	CHANNELS 6 Xposition Yposition Zposition Zrotation Yrotation Xrotation 
	JOINT LHipJoint
	{
		OFFSET 0.000000 0.000000 0.000000
		CHANNELS 3 Zrotation Yrotation Xrotation
		JOINT LeftUpLeg
		{
			OFFSET 1.363060 -1.794630 0.839290
			CHANNELS 3 Zrotation Yrotation Xrotation
			JOINT LeftLeg
			{
				OFFSET 2.448110 -6.726130 0.000000
				CHANNELS 3 Zrotation Yrotation Xrotation
				JOINT LeftFoot
				{
					OFFSET 2.562200 -7.039590 0.000000
					CHANNELS 3 Zrotation Yrotation Xrotation
					JOINT LeftToeBase
					{
						OFFSET 0.157640 -0.433110 2.322550
						CHANNELS 3 Zrotation Yrotation Xrotation
						End Site
						{
							OFFSET 0.000000 0.000000 0.000000
						}
					}
				}
			}
		}
	}
	JOINT RHipJoint
	{
		OFFSET 0.000000 0.000000 0.000000
		CHANNELS 3 Zrotation Yrotation Xrotation
		JOINT RightUpLeg
		{
			OFFSET -1.305520 -1.794630 0.839290
			CHANNELS 3 Zrotation Yrotation Xrotation
			JOINT RightLeg
			{
				OFFSET -2.542530 -6.985550 0.000000
				CHANNELS 3 Zrotation Yrotation Xrotation
				JOINT RightFoot
				{
					OFFSET -2.568260 -7.056230 0.000000
					CHANNELS 3 Zrotation Yrotation Xrotation
					JOINT RightToeBase
					{
						OFFSET -0.164730 -0.452590 2.363150
						CHANNELS 3 Zrotation Yrotation Xrotation
						End Site
						{
							OFFSET 0.000000 0.000000 0.000000
						}
					}
				}
			}
		}
	}
}
MOTION
Frames: 16
Frame Time: 0.008333
26.442931 17.461010 2.433273 149.308119 -80.881816 -122.400235 -8.998128 -0.243820 4.539371 -12.395108 -8.951139 -63.209206 1.611726 3.308980 70.313874 1.832381 9.247440 2.016325 1.741800 0.000000 -31.524300 12.416779 -4.356648 2.871996 -1.120411 -6.325049 -5.997261 1.259041 -0.203945 3.203708 0.220124 4.490196 20.606731 1.865100 -0.000000 -72.607700
26.206000 17.590019 2.436721 147.334022 -81.054089 -120.520345 -8.786780 -0.014922 4.804748 -12.928895 -9.449596 -62.485417 1.416496 3.130229 67.473182 1.784127 9.059154 2.958987 1.886300 0.000000 -33.191300 12.676491 -4.474087 2.767823 -1.597049 -7.624903 -5.457811 1.193652 -0.248435 2.387468 0.119891 4.708514 23.434799 2.228300 -0.000000 -69.372300
25.972928 17.710309 2.441034 145.521347 -81.256213 -118.814070 -8.588027 0.214051 5.038476 -13.416342 -9.833949 -61.686954 1.216575 2.956827 64.501151 1.757921 9.037718 3.857864 2.062700 -0.000000 -34.666800 12.893166 -4.563135 2.661624 -1.987837 -8.713546 -4.973916 1.119088 -0.288768 2.064025 -0.002673 4.439553 25.334610 2.273999 0.000000 -65.751600
25.743801 17.820868 2.446436 143.895092 -81.496097 -117.303070 -8.407436 0.437508 5.234413 -13.845966 -10.097906 -60.821080 1.009831 2.788611 61.414439 1.747018 9.138631 4.687998 2.264100 0.000000 -35.844100 13.059452 -4.633323 2.564914 -2.274194 -9.492519 -4.493919 1.025157 -0.327861 2.176978 -0.143305 3.594561 26.375684 1.928200 -0.000000 -62.158900
25.518654 17.920695 2.453187 142.465515 -81.778634 -115.988362 -8.248291 0.651551 5.393423 -14.210365 -10.246654 -59.904212 0.794319 2.624371 58.234506 1.744414 9.313449 5.424347 2.479100 0.000000 -36.649700 13.173651 -4.690216 2.485051 -2.442557 -9.919399 -4.003143 0.907550 -0.369143 2.704468 -0.300674 2.216022 26.649630 1.222100 0.000000 -58.877400
25.297207 18.008893 2.461237 141.195270 -82.102623 -114.831579 -8.109201 0.854750 5.519692 -14.512828 -10.296302 -58.948160 0.568106 2.462074 54.983099 1.743307 9.515550 6.051728 2.694101 0.000000 -37.117101 13.242040 -4.732798 2.419228 -2.495121 -10.022836 -3.515922 0.768778 -0.416961 3.664273 -0.472677 0.472058 26.250990 0.284401 -0.000000 -56.032700
25.078829 18.085240 2.471258 140.138585 -82.494511 -113.883441 -8.002987 1.035583 5.610662 -14.713482 -10.240385 -57.976466 0.331248 2.300637 51.698490 1.734004 9.674737 6.544658 2.882801 -0.000000 -37.259300 13.251157 -4.772009 2.376314 -2.373342 -9.741692 -2.969389 0.610443 -0.469706 4.918195 -0.669963 -1.576185 25.424573 -0.804300 -0.000000 -53.938500
24.863139 18.149063 2.482806 139.187106 -82.937456 -113.035204 -7.920147 1.199432 5.682549 -14.837137 -10.115708 -57.006066 0.082351 2.137028 48.399636 1.711509 9.758124 6.906918 3.033200 0.000001 -37.220300 13.221875 -4.799693 2.337245 -2.118224 -9.254271 -2.459681 0.450265 -0.535308 6.573947 -0.875204 -3.591851 24.236664 -1.824500 -0.000000 -52.472100
24.649394 18.200386 2.496172 138.323475 -83.442303 -112.270410 -7.866253 1.341156 5.739385 -14.868087 -9.927656 -56.056467 -0.177769 1.969714 45.118811 1.668317 9.713964 7.138016 3.125000 0.000000 -37.107300 13.153492 -4.823492 2.297027 -1.714941 -8.619597 -1.982924 0.299700 -0.616182 8.556672 -1.080267 -5.433824 22.894493 -2.686800 -0.000000 -51.789700
24.436997 18.239114 2.510763 137.421705 -83.988470 -111.466545 -7.832203 1.466723 5.792519 -14.834301 -9.704008 -55.133253 -0.449961 1.796508 41.867796 1.600936 9.523600 7.261798 3.153800 0.000000 -37.063500 13.065975 -4.843133 2.238902 -1.221484 -7.999730 -1.602449 0.172959 -0.718955 10.892248 -1.259147 -6.871976 21.499685 -3.277300 -0.000000 -51.793099
24.225594 18.265593 2.526664 136.438603 -84.574977 -110.582030 -7.820000 1.574656 5.844256 -14.738053 -9.443621 -54.247805 -0.732615 1.616556 38.667752 1.504806 9.160485 7.306016 3.113500 0.000000 -37.198000 12.963264 -4.867780 2.159861 -0.655205 -7.460067 -1.324524 0.075407 -0.845016 13.506081 -1.395987 -7.836285 20.195193 -3.591100 0.000000 -52.538300
24.014691 18.279953 2.543132 135.250438 -85.171055 -109.492837 -7.818608 1.672953 5.901521 -14.618427 -9.162962 -53.397581 -1.025921 1.428497 35.517566 1.380380 8.636737 7.322358 3.015900 -0.000000 -37.622500 12.865866 -4.898117 2.054028 -0.094037 -7.102173 -1.197771 0.008398 -0.996263 16.397658 -1.470441 -8.223361 19.008343 -3.608499 0.000000 -53.797200
23.803753 18.282621 2.560091 133.837736 -85.767678 -108.181009 -7.828221 1.761411 5.960436 -14.489621 -8.846366 -52.582663 -1.327146 1.232674 32.431449 1.227343 7.955889 7.356519 2.868000 0.000000 -38.368800 12.777787 -4.939358 1.928442 0.435934 -6.925220 -1.212593 -0.034814 -1.168738 19.491495 -1.481415 -8.077585 17.978889 -3.386700 0.000000 -55.438400
23.592976 18.273894 2.577275 132.203383 -86.350465 -106.651906 -7.847000 1.841135 6.015237 -14.374976 -8.475324 -51.798226 -1.632907 1.030621 29.427754 1.048354 7.137685 7.451331 2.680400 0.000000 -39.408201 12.704697 -4.992126 1.791840 0.903983 -6.911798 -1.359700 -0.063611 -1.357199 22.736516 -1.436109 -7.475869 17.088400 -2.985601 -0.000000 -57.225600
23.382001 18.253986 2.594474 130.408916 -86.907747 -104.971074 -7.874007 1.912157 6.057343 -14.296636 -8.026451 -51.038463 -1.938538 0.825596 26.537709 0.848300 6.208778 7.634097 2.461700 0.000000 -40.641000 12.649689 -5.055010 1.654581 1.291646 -7.020538 -1.618640 -0.088215 -1.555612 26.086812 -1.350286 -6.541553 16.293806 -2.474300 0.000000 -58.927200
23.170582 18.222942 2.611484 128.573643 -87.429580 -103.264018 -7.907855 1.974336 6.077689 -14.276440 -7.479254 -50.299225 -2.238262 0.622767 23.808977 0.634758 5.203422 7.908488 2.218800 0.000000 -41.916700 12.614659 -5.125382 1.526332 1.587334 -7.202818 -1.964335 -0.117909 -1.758645 29.505835 -1.243686 -5.423853 15.544668 -1.923100 -0.000000 -60.376200
